<svg width="48" height="48" viewBox="0 0 48 48" fill="none" xmlns="http://www.w3.org/2000/svg">
<path d="M13.525 28.9651L27.085 29.6251L27.6025 17.5126L20.8375 9.76514L14.05 16.8526L13.525 28.9651Z" fill="#FDFAF5"/>
<path d="M36.925 18.6001L27.5725 18.1426L27.085 29.6251L36.4375 30.0826L36.925 18.6001Z" fill="#D1D2D4"/>
<path d="M21.925 29.3775L22.255 21.2325L17.5525 21L17.2225 29.145L21.925 29.3775Z" fill="#E03C31"/>
<path d="M13.99 18.0751L20.755 11.5726L27.49 19.8826L27.5725 18.1426L20.8375 9.76514L13.6675 16.6651L13.99 18.0751Z" fill="#D1D2D4"/>
<path d="M20.89 8.76001L30.58 9.23251L37.4575 17.9925L27.37 17.4975L20.89 8.76001Z" fill="#FF837A"/>
<path d="M20.14 9.49501L20.89 8.76001L27.6175 17.145L37.855 17.64L37.78 19.1625L27.55 18.6675L20.8 10.32L14.035 17.1975L13.99 18.075L13.21 18.0375L13.285 16.515L20.14 9.49501Z" fill="#FF837A"/>
<path d="M20.2675 17.0024L21.955 17.0624C21.9623 16.6162 21.805 16.1829 21.5131 15.8453C21.2212 15.5077 20.8151 15.2895 20.3725 15.2324L20.2675 17.0024Z" fill="#8C8C8C"/>
<path d="M19.9525 16.995L20.0575 15.2175C19.6075 15.2391 19.1814 15.4265 18.8615 15.7437C18.5415 16.0608 18.3504 16.4852 18.325 16.935L19.9525 16.995Z" fill="#8C8C8C"/>
<path d="M20.2525 17.3176L20.155 18.8551L21.8725 18.9376L21.9475 17.3776L20.2525 17.3176Z" fill="#8C8C8C"/>
<path d="M19.9375 17.3025L18.31 17.25L18.235 18.7575L19.8475 18.8325L19.9375 17.3025Z" fill="#8C8C8C"/>
<path d="M40.195 27.2776C40.2625 28.0276 37.3975 28.9126 33.7975 29.2201C30.1975 29.5276 27.2275 29.1601 27.16 28.3951C27.0925 27.6301 29.965 26.7601 33.5575 26.4526C37.15 26.1451 40.1275 26.5126 40.195 27.2776Z" fill="#F8AB08"/>
<path d="M41.7025 27.3824L41.5 27.0449L25.6975 28.7549L25.93 31.4999C26.0275 32.6099 29.68 33.2024 34.105 32.8199C38.53 32.4374 42.0325 31.2374 41.935 30.1274L41.7025 27.3824Z" fill="#E5A506"/>
<path d="M40 27.6902C40.045 28.2377 37.285 28.9202 33.835 29.1902C30.385 29.4602 27.55 29.2802 27.4975 28.7327C27.445 28.1852 30.2125 27.5027 33.6625 27.2327C37.1125 26.9627 39.9175 27.1427 40 27.6902Z" fill="#FFDE00"/>
<path d="M41.7025 27.3826C41.7925 28.4851 38.29 29.6926 33.8725 30.0751C29.455 30.4576 25.795 29.8576 25.6975 28.7551C25.6 27.6526 29.11 26.4376 33.5275 26.0626C37.945 25.6876 41.605 26.2501 41.7025 27.3826Z" fill="#FFDE00"/>
<path d="M40.195 27.2776C40.2625 28.0276 37.3975 28.9126 33.7975 29.2201C30.1975 29.5276 27.2275 29.1601 27.16 28.3951C27.0925 27.6301 29.965 26.7601 33.5575 26.4526C37.15 26.1451 40.1275 26.5126 40.195 27.2776Z" fill="#F8AB08"/>
<path d="M40.2175 27.5175C40.27 28.1475 37.4725 28.905 33.97 29.205C30.4675 29.505 27.58 29.205 27.5275 28.605C27.475 28.005 30.25 27.225 33.775 26.925C37.3 26.625 40.165 26.8875 40.2175 27.5175Z" fill="#FFDE00"/>
<path d="M39.25 24.4124C39.31 25.1624 36.445 26.0474 32.8525 26.3549C29.26 26.6624 26.2825 26.2949 26.215 25.5299C26.1475 24.7649 29.0125 23.8949 32.6125 23.5799C36.2125 23.2649 39.145 23.6474 39.25 24.4124Z" fill="#F8AB08"/>
<path d="M40.75 24.5099L40.555 24.1724L24.715 25.8899L24.9475 28.6124C25.0375 29.7224 28.6975 30.3149 33.1225 29.9324C37.5475 29.5499 41.0425 28.3499 40.945 27.2399L40.75 24.5099Z" fill="#FDC400"/>
<path d="M26.155 29.4751L26.065 29.4826L25.93 27.5776H26.0275L26.155 29.4751Z" fill="#F6AB1B"/>
<path d="M26.976 27.9529L26.8788 27.9612L27.0275 29.7023L27.1247 29.6941L26.976 27.9529Z" fill="#F6AB1B"/>
<path d="M27.9358 28.0732L27.8387 28.0815L27.9893 29.8451L28.0864 29.8368L27.9358 28.0732Z" fill="#F6AB1B"/>
<path d="M28.8004 28.278L28.7033 28.2864L28.8442 29.9228L28.9413 29.9145L28.8004 28.278Z" fill="#F6AB1B"/>
<path d="M38.98 24.825C39.025 25.3725 36.265 26.055 32.815 26.325C29.365 26.595 26.5 26.445 26.5 25.8975C26.5 25.35 29.215 24.6675 32.665 24.3975C36.115 24.1275 38.9275 24.2775 38.98 24.825Z" fill="#FFDE00"/>
<path d="M29.866 28.3366L29.7689 28.345L29.9097 29.9814L30.0069 29.9731L29.866 28.3366Z" fill="#F6AB1B"/>
<path d="M30.7115 28.2641L30.6143 28.2725L30.7513 29.8641L30.8485 29.8557L30.7115 28.2641Z" fill="#F6AB1B"/>
<path d="M31.9653 28.1489L31.8682 28.1572L32.0258 29.988L32.1229 29.9796L31.9653 28.1489Z" fill="#F6AB1B"/>
<path d="M40.75 24.5102C40.8475 25.6202 37.3375 26.8277 32.92 27.2102C28.5025 27.5927 24.805 27.0002 24.715 25.8902C24.625 24.7802 28.12 23.5727 32.5375 23.1902C36.955 22.8077 40.615 23.4077 40.75 24.5102Z" fill="#FFDE00"/>
<path d="M39.25 24.4124C39.31 25.1624 36.445 26.0474 32.8525 26.3549C29.26 26.6624 26.2825 26.2949 26.215 25.5299C26.1475 24.7649 29.0125 23.8949 32.6125 23.5799C36.2125 23.2649 39.145 23.6474 39.25 24.4124Z" fill="#F8AB08"/>
<path d="M39.25 24.6525C39.31 25.2825 36.5125 26.04 33.0025 26.34C29.4925 26.64 26.6125 26.34 26.56 25.74C26.5075 25.14 29.305 24.36 32.8075 24.0525C36.31 23.745 39.175 24 39.25 24.6525Z" fill="#FFDE00"/>
<path d="M40 21.6826C40.0675 22.4326 37.2025 23.3251 33.6025 23.6326C30.0025 23.9401 27.0325 23.5726 26.965 22.8076C26.8975 22.0426 29.77 21.1651 33.3625 20.8576C36.955 20.5501 39.91 20.9176 40 21.6826Z" fill="#F8AB08"/>
<path d="M41.5 21.7877L41.305 21.4502L25.48 23.1602L25.75 25.8902C25.8475 27.0002 29.5 27.5927 33.925 27.2102C38.35 26.8277 41.8525 25.6277 41.755 24.5177L41.5 21.7877Z" fill="#FDC400"/>
<path d="M29.5691 25.5595L29.472 25.5679L29.6129 27.2043L29.71 27.196L29.5691 25.5595Z" fill="#F6AB1B"/>
<path d="M39.745 22.1024C39.79 22.6499 37.03 23.3324 33.58 23.6024C30.13 23.8724 27.295 23.6924 27.2425 23.1449C27.19 22.5974 29.9575 21.9074 33.4075 21.6449C36.8575 21.3824 39.7 21.5549 39.745 22.1024Z" fill="#FFDE00"/>
<path d="M41.5 21.7876C41.59 22.8976 38.0875 24.1051 33.67 24.4801C29.2525 24.8551 25.5925 24.2701 25.495 23.1601C25.3975 22.0501 28.9075 20.8501 33.325 20.4676C37.7425 20.0851 41.3875 20.6851 41.5 21.7876Z" fill="#FFDE00"/>
<path d="M40 21.6826C40.0675 22.4326 37.2025 23.3251 33.6025 23.6326C30.0025 23.9401 27.0325 23.5726 26.965 22.8076C26.8975 22.0426 29.77 21.1651 33.3625 20.8576C36.955 20.5501 39.91 20.9176 40 21.6826Z" fill="#F8AB08"/>
<path d="M40 21.9301C40.0525 22.5601 37.255 23.3176 33.7525 23.6176C30.25 23.9176 27.3625 23.6176 27.31 23.0176C27.2575 22.4176 30.0475 21.6301 33.5575 21.3301C37.0675 21.0301 39.9475 21.3001 40 21.9301Z" fill="#FFDE00"/>
<g opacity="0.7">
<path d="M25.75 25.0024C25.75 25.0024 28.7317 27.0199 33.6587 26.4751C37.5019 26.0185 40.4904 25.6283 41.5 23.25C41.2173 25.297 41.3183 25.2307 41.3183 25.2307C41.3183 25.2307 40.1673 27.1598 33.7125 27.5795C31.0202 27.8078 28.0385 28.1465 25.8577 26.0333L25.75 25.0024Z" fill="#DA8D08"/>
</g>
<path d="M1.97248 29.7225C1.97248 29.6986 1.98196 29.6758 1.99884 29.6589C2.01572 29.642 2.03861 29.6325 2.06248 29.6325C2.63998 29.6325 5.99998 29.6325 6.92998 28.665C7.97148 27.4641 9.32065 26.5697 10.8324 26.0781C12.3442 25.5865 13.9613 25.5163 15.51 25.875C20.3325 26.8875 23.5725 26.79 30.345 25.62C31.2225 25.4625 32.595 25.38 32.97 26.07C33.1619 26.5947 33.1558 27.1715 32.9528 27.692C32.7498 28.2126 32.3639 28.6412 31.8675 28.8975C29.7389 29.8748 27.5244 30.6531 25.2525 31.2225C25.1475 31.2225 25.155 31.4025 25.2525 31.41C27.1982 31.7456 29.1613 31.971 31.1325 32.085C33.96 32.1825 37.44 32.61 44.7525 27.975C45.66 27.225 46.4325 27.375 46.8075 27.705C47.1825 28.035 47.3625 29.3175 46.17 30.4875C44.9775 31.6575 38.5425 36 28.0725 39.5775C24.4125 40.635 22.275 41.445 17.9475 40.08C14.745 38.8275 11.085 36.75 6.45748 37.8825C5.30998 38.1 2.58748 38.235 2.06248 38.2575C2.05 38.2576 2.03765 38.255 2.02621 38.25C2.01478 38.245 2.0045 38.2377 1.99604 38.2286C1.98757 38.2194 1.98111 38.2086 1.97705 38.1968C1.973 38.185 1.97144 38.1725 1.97248 38.16V29.7225Z" fill="#FDCDA2"/>
<path d="M35 32C26 33 21.5888 31.88 18.4838 30.9725C18.4838 30.9725 18.1571 30.9197 17.9945 30.95C17.8318 30.9804 17.6784 31.048 17.5462 31.1475C17.4141 31.247 17.3615 31.2662 17.2874 31.4141C17.2482 31.4922 17.288 31.5455 17.2874 31.7109C17.2874 31.7109 17.316 31.8007 17.5 32C17.684 32.1993 17.9945 32.5 18.5 32.5C22.655 32.7625 28.6975 30.7724 31.495 29.4899C34.495 28.0949 34.2625 25.1324 31.135 25.6349C30.535 25.7324 26.695 26.2949 26.695 26.2949C22.855 26.9924 20.8675 26.7899 15.445 25.9274C10.0225 25.0649 10 26.5 11 26C11.5 25.75 13.6101 25.721 13.6101 25.721L13.81 18.8024L12.4975 18.7499L12.5575 16.1474L20.62 8.00244L30.775 8.42994L38.65 17.7224L38.5 19.6274L38.2775 20.5625L36.8725 20.3549C33.805 19.9799 26.89 20.7524 25.8475 22.4399C24.3475 24.9074 33.445 24.6899 33.445 24.6899C41.74 24.2474 41.32 21.9674 41.32 21.9674L41.545 24.2174C41.605 26.2424 37 27.5 37 27.5L37.2775 29.9C40.545 29.18 42.0625 26.7749 42.0625 26.7749L42.3175 29.3849L44.275 28.4549C46.87 26.7899 49.21 28.9499 45.4 31.5899C44.05 32.6624 37.0675 36.3299 30.6325 38.3924C21.6325 41.3924 18.2875 39.0974 16.3 38.2349C11.455 35.8499 3.06249 38.4149 3.06249 38.4149C3.06249 38.4149 1.50249 28.2974 3.34749 29.6324" stroke="#E43D30" stroke-linecap="round" stroke-linejoin="round"/>
</svg>
