<svg width="48" height="48" viewBox="0 0 48 48" fill="none" xmlns="http://www.w3.org/2000/svg">
<path d="M19.485 6.77515L14.205 11.2001L21.165 38.0276L27.3975 34.6901L19.485 6.77515Z" fill="white"/>
<path d="M26.22 7.18015L19.485 6.77515L27.3975 34.6901L33.1275 34.0901L26.22 7.18015Z" fill="#D1D2D4"/>
<path fill-rule="evenodd" clip-rule="evenodd" d="M18.153 11.8436L17.0699 12.6654L16.5736 10.8552L17.634 10L18.153 11.8436ZM17.273 15.4308L16.2238 16.186L15.75 14.3647L16.7766 13.5872L17.273 15.4308ZM16.8669 18.6297L17.9499 17.9189L17.431 16.0198L16.3818 16.7639L16.8669 18.6297ZM21.2328 15.7197L20.037 16.5193L19.4955 14.5647L20.6688 13.7428L21.2328 15.7197ZM19.1119 20.151L20.2739 19.4402L19.7211 17.4634L18.5816 18.2075L19.1119 20.151ZM22 18.3742L20.7816 19.1294L20.2175 17.1304L21.4247 16.3529L22 18.3742ZM19.8678 22.8387L21.0862 22.2057L20.4995 20.1177L19.3037 20.7841L19.8678 22.8387Z" fill="#6F73B6"/>
<path d="M21.33 26.3051L20.475 26.6651L20.085 25.2101L20.9175 24.8201L21.33 26.3051Z" fill="#6F73B6"/>
<path d="M20.64 28.765L19.815 29.0725L19.44 27.61L20.25 27.28L20.64 28.765Z" fill="#6F73B6"/>
<path d="M24.57 27.2801L23.5875 27.6476L23.1375 26.0801L24.0975 25.6826L24.57 27.2801Z" fill="#6F73B6"/>
<path d="M25.815 22.6601L34.2675 23.7926L35.2125 16.7501L31.3875 11.5376L26.76 15.6101L25.815 22.6601Z" fill="#FDFAF5"/>
<path d="M28.7341 18.4022L28.1203 22.9661L31.0489 23.3599L31.6628 18.796L28.7341 18.4022Z" fill="#6F73B6"/>
<path d="M26.655 16.3751L31.2375 12.6626L35.01 18.2276L35.16 17.1401L31.3875 11.5376L26.5275 15.4751L26.655 16.3751Z" fill="#DCDDE2"/>
<path d="M31.4775 10.9075L37.515 11.725L41.355 17.575L35.0625 16.7275L31.4775 10.9075Z" fill="#ADADD7"/>
<path d="M30.96 11.335L31.4775 10.9075L35.2425 16.5175L41.6175 17.3725L41.49 18.325L35.115 17.47L31.335 11.8825L26.73 15.8275L26.655 16.375L26.175 16.3075L26.295 15.3625L30.96 11.335Z" fill="#6F73B6"/>
<path d="M19.74 45.1077C19.3586 45.1165 18.9832 45.0119 18.6612 44.8073C18.3393 44.6026 18.0853 44.3069 17.9315 43.9578C17.7777 43.6087 17.7309 43.2218 17.7972 42.8461C17.8634 42.4704 18.0396 42.1227 18.3035 41.8473C18.5675 41.5718 18.9072 41.3808 19.2797 41.2985C19.6522 41.2163 20.0408 41.2464 20.3962 41.3851C20.7516 41.5238 21.0578 41.7649 21.2761 42.0777C21.4944 42.3906 21.615 42.7612 21.6225 43.1427C21.6326 43.6526 21.4401 44.1458 21.0872 44.5141C20.7344 44.8824 20.2499 45.0959 19.74 45.1077Z" fill="#EB9F00"/>
<path d="M38.685 44.7251C38.3054 44.7325 37.9321 44.6271 37.6124 44.4223C37.2926 44.2175 37.0408 43.9225 36.8887 43.5746C36.7366 43.2267 36.6911 42.8415 36.7579 42.4677C36.8247 42.0939 37.0008 41.7483 37.264 41.4746C37.5272 41.2009 37.8657 41.0114 38.2365 40.9301C38.6074 40.8487 38.9941 40.8792 39.3477 41.0176C39.7013 41.156 40.0059 41.3961 40.223 41.7076C40.4402 42.0191 40.56 42.388 40.5675 42.7676C40.5735 43.02 40.5294 43.2711 40.4379 43.5064C40.3463 43.7417 40.2091 43.9566 40.0341 44.1385C39.859 44.3205 39.6497 44.4661 39.4182 44.5667C39.1867 44.6674 38.9375 44.7212 38.685 44.7251Z" fill="#EB9F00"/>
<path d="M39.2625 43.255L20.6325 43.63C20.3904 43.6416 20.149 43.5944 19.9291 43.4924C19.7092 43.3903 19.5173 43.2365 19.3699 43.0441C19.2224 42.8516 19.1238 42.6263 19.0825 42.3875C19.0411 42.1486 19.0583 41.9033 19.1325 41.6725L21.3825 37.39C21.4087 37.3119 21.4501 37.2398 21.5044 37.1778C21.5586 37.1158 21.6246 37.0652 21.6986 37.029C21.7725 36.9927 21.8529 36.9714 21.9351 36.9665C22.0173 36.9615 22.0997 36.9729 22.1775 37C22.3321 37.0603 22.4567 37.1793 22.5241 37.331C22.5915 37.4826 22.5963 37.6548 22.5375 37.81L20.2875 42.04C20.283 42.1124 20.3042 42.1842 20.3475 42.2425C20.3743 42.2763 20.4086 42.3033 20.4476 42.3215C20.4867 42.3398 20.5294 42.3487 20.5725 42.3475L39.21 41.98C39.2914 41.978 39.3724 41.9922 39.4482 42.0217C39.5241 42.0513 39.5933 42.0956 39.6519 42.1521C39.7106 42.2086 39.7574 42.2762 39.7896 42.3509C39.8219 42.4257 39.839 42.5061 39.84 42.5875C39.8461 42.6693 39.836 42.7515 39.8103 42.8293C39.7846 42.9072 39.7437 42.9792 39.69 43.0413C39.6363 43.1033 39.571 43.1541 39.4976 43.1908C39.4242 43.2275 39.3443 43.2493 39.2625 43.255Z" fill="#EB9F00"/>
<path d="M45.27 20.4552C45.0705 20.2693 44.8331 20.1289 44.5742 20.0434C44.3153 19.958 44.041 19.9296 43.77 19.9602L12 23.2752L10.41 23.4402L20.04 38.6802C20.2323 38.9539 20.4967 39.169 20.8039 39.3014C21.1111 39.4338 21.449 39.4784 21.78 39.4302L40.53 37.4727C40.8931 37.4607 41.2437 37.3368 41.5337 37.118C41.8236 36.8991 42.0389 36.596 42.15 36.2502L45.675 21.8577C45.7403 21.6091 45.7371 21.3475 45.6658 21.1006C45.5945 20.8537 45.4577 20.6307 45.27 20.4552Z" fill="#FFC72C"/>
<path d="M10.785 24.025L12.63 23.83L10.7025 20.83C10.6096 20.7053 10.4842 20.6086 10.34 20.5504C10.1958 20.4922 10.0384 20.4748 9.885 20.5L3.42 21.1675C3.3095 21.1576 3.19817 21.1723 3.09404 21.2105C2.9899 21.2488 2.89555 21.3097 2.81778 21.3888C2.74002 21.468 2.68078 21.5634 2.64434 21.6682C2.6079 21.773 2.59515 21.8845 2.60703 21.9948C2.61891 22.1051 2.65512 22.2114 2.71304 22.3061C2.77096 22.4007 2.84915 22.4813 2.94198 22.542C3.0348 22.6028 3.13996 22.6422 3.24985 22.6574C3.35975 22.6727 3.47166 22.6633 3.5775 22.63L8.73 22.0975C8.94486 22.0693 9.16334 22.1005 9.36169 22.1878C9.56005 22.2751 9.73067 22.4151 9.855 22.5925L10.785 24.025Z" fill="#FFC72C"/>
<path fill-rule="evenodd" clip-rule="evenodd" d="M39.5475 32.9501C39.6132 33.0866 39.7228 33.1971 39.8589 33.2638C39.9949 33.3304 40.1494 33.3494 40.2975 33.3176C40.3693 33.3058 40.4377 33.2788 40.4982 33.2384C40.5587 33.198 40.6098 33.1451 40.6482 33.0833C40.6865 33.0215 40.7112 32.9522 40.7206 32.8801C40.73 32.8079 40.7238 32.7346 40.7025 32.6651L38.3175 26.1701C38.2471 26.0193 38.1286 25.8962 37.9806 25.8202C37.8326 25.7442 37.6636 25.7195 37.5 25.7501C37.422 25.77 37.3487 25.8054 37.2846 25.8543C37.2206 25.9031 37.167 25.9644 37.1271 26.0343C37.0872 26.1043 37.0618 26.1817 37.0524 26.2617C37.043 26.3417 37.0499 26.4228 37.0725 26.5001L39.5475 32.9501Z" fill="#ECA900"/>
<path fill-rule="evenodd" clip-rule="evenodd" d="M35.895 33.2499C35.9638 33.3834 36.0743 33.4907 36.2097 33.5557C36.345 33.6207 36.4979 33.6397 36.645 33.6099C36.7157 33.5993 36.783 33.5728 36.842 33.5324C36.9009 33.492 36.9499 33.4387 36.9853 33.3766C37.0206 33.3145 37.0415 33.2452 37.0462 33.1739C37.0509 33.1026 37.0394 33.0312 37.0125 32.9649L34.3275 26.5599C34.2563 26.3957 34.1288 26.2623 33.9678 26.1839C33.8069 26.1055 33.6232 26.0873 33.45 26.1324C33.3736 26.1528 33.3026 26.1894 33.2417 26.2399C33.1808 26.2903 33.1316 26.3533 33.0974 26.4246C33.0632 26.4958 33.0448 26.5737 33.0435 26.6527C33.0423 26.7317 33.0581 26.8101 33.09 26.8824L35.895 33.2499Z" fill="#ECA900"/>
<path fill-rule="evenodd" clip-rule="evenodd" d="M32.295 33.5651C32.3749 33.7005 32.4954 33.8075 32.6394 33.8707C32.7834 33.934 32.9437 33.9504 33.0975 33.9176C33.1661 33.9058 33.231 33.8783 33.2871 33.8372C33.3433 33.7962 33.3891 33.7427 33.4211 33.6809C33.4531 33.6191 33.4703 33.5508 33.4714 33.4812C33.4725 33.4117 33.4575 33.3428 33.4275 33.2801L30.4275 26.9576C30.3619 26.7893 30.2377 26.6505 30.0779 26.5664C29.9181 26.4824 29.7333 26.4588 29.5575 26.5001C29.4822 26.5212 29.4125 26.559 29.3536 26.6105C29.2948 26.6621 29.2482 26.7262 29.2173 26.7981C29.1863 26.87 29.1719 26.9479 29.175 27.0261C29.178 27.1043 29.1986 27.1808 29.235 27.2501L32.295 33.5651Z" fill="#ECA900"/>
<path fill-rule="evenodd" clip-rule="evenodd" d="M28.755 33.8651C28.8353 34.002 28.9571 34.1099 29.1026 34.1732C29.2482 34.2366 29.4101 34.2521 29.565 34.2176C29.6317 34.2049 29.6944 34.1765 29.7479 34.1348C29.8015 34.0931 29.8443 34.0392 29.8729 33.9776C29.9015 33.9161 29.915 33.8486 29.9123 33.7807C29.9096 33.7129 29.8909 33.6467 29.8575 33.5876L26.595 27.3326C26.5117 27.174 26.3782 27.0475 26.2154 26.9728C26.0525 26.8982 25.8695 26.8796 25.695 26.9201C25.619 26.9399 25.5489 26.9777 25.4907 27.0304C25.4325 27.0831 25.3879 27.1491 25.3606 27.2227C25.3334 27.2963 25.3243 27.3755 25.3342 27.4534C25.3441 27.5313 25.3727 27.6056 25.4175 27.6701L28.755 33.8651Z" fill="#ECA900"/>
<path fill-rule="evenodd" clip-rule="evenodd" d="M25.2675 34.1576C25.3494 34.2946 25.4728 34.4019 25.6198 34.4639C25.7668 34.526 25.9298 34.5395 26.085 34.5026C26.1512 34.491 26.2134 34.4628 26.2657 34.4207C26.3181 34.3786 26.3589 34.3239 26.3843 34.2617C26.4098 34.1995 26.4191 34.1319 26.4114 34.0652C26.4036 33.9984 26.3791 33.9348 26.34 33.8801L22.8075 27.7076C22.7171 27.5519 22.5803 27.4285 22.4162 27.3545C22.2521 27.2806 22.069 27.2598 21.8925 27.2951C21.8186 27.3179 21.7514 27.3582 21.6964 27.4126C21.6414 27.467 21.6004 27.5338 21.5769 27.6075C21.5533 27.6811 21.5479 27.7594 21.561 27.8356C21.5742 27.9117 21.6056 27.9836 21.6525 28.0451L25.2675 34.1576Z" fill="#ECA900"/>
<path fill-rule="evenodd" clip-rule="evenodd" d="M21.825 34.45C21.9155 34.58 22.0411 34.6816 22.1873 34.7427C22.3334 34.8038 22.4939 34.8219 22.65 34.795C22.7153 34.7834 22.7765 34.7551 22.8275 34.7128C22.8786 34.6705 22.9177 34.6156 22.9412 34.5536C22.9646 34.4916 22.9715 34.4245 22.9613 34.359C22.951 34.2935 22.9238 34.2318 22.8825 34.18L19.08 28.0825C18.9867 27.9278 18.8483 27.8054 18.6834 27.7316C18.5185 27.6579 18.335 27.6364 18.1575 27.67C17.8425 27.76 17.76 28.09 17.955 28.42L21.825 34.45Z" fill="#ECA900"/>
<g style="mix-blend-mode:multiply" opacity="0.37">
<path d="M12.2475 23.245L43.8 19.96C44.0617 19.9307 44.3267 19.9599 44.5757 20.0455C44.8247 20.1311 45.0516 20.271 45.24 20.455C45.4166 20.6304 45.5468 20.8471 45.6188 21.0854C45.6908 21.3237 45.7024 21.5761 45.6525 21.82L42.975 32.575C26.13 28.285 12.2475 23.245 12.2475 23.245Z" fill="#FDD88D"/>
</g>
<path d="M41.4975 16.1876L38.25 11.4101C38.1814 11.3041 38.0912 11.2139 37.9852 11.1453C37.8792 11.0768 37.7598 11.0316 37.635 11.0126L31.2075 10.0601L28.38 12.3701L26.745 6.37007L18.9825 5.69507L13.14 10.9451L16.635 23.4401L44.1675 19.8476C44.3913 19.8287 44.6164 19.8603 44.8263 19.9401C45.0362 20.0199 45.2255 20.1457 45.3802 20.3084C45.535 20.4711 45.6513 20.6664 45.7205 20.88C45.7896 21.0936 45.81 21.32 45.78 21.5426L42.3825 36.0026C42.3474 36.3492 42.1926 36.6727 41.9449 36.9177C41.6972 37.1626 41.372 37.3137 41.025 37.3451L21.195 39.2876C20.9658 39.3126 20.7343 39.269 20.53 39.1621C20.3257 39.0553 20.1577 38.8901 20.0475 38.6876L10.1175 22.9751C10.0133 22.7916 9.85758 22.6427 9.66964 22.5467C9.4817 22.4507 9.26977 22.4119 9.06002 22.4351L3.33002 23.0276C3.0369 23.057 2.74401 22.9695 2.51507 22.7841C2.28613 22.5987 2.13966 22.3304 2.10752 22.0376V22.0376C2.09194 21.8922 2.10521 21.7453 2.14658 21.6051C2.18795 21.4649 2.25659 21.3343 2.34858 21.2207C2.44056 21.1071 2.55407 21.0128 2.6826 20.9432C2.81112 20.8736 2.95213 20.83 3.09752 20.8151L5.67002 20.5451" stroke="#E43D30" stroke-linecap="round" stroke-linejoin="round"/>
</svg>
