<svg width="48" height="48" viewBox="0 0 48 48" fill="none" xmlns="http://www.w3.org/2000/svg">
<path d="M37.0125 26.3975H11.955C11.7136 26.3984 11.4778 26.4699 11.2766 26.6032C11.0754 26.7364 10.9175 26.9256 10.8225 27.1475L5.87247 38.3225C5.07747 40.25 6.81747 41 7.69497 41H40.995C41.8575 41 43.4925 40.4675 42.72 38.4425L38.16 27.1925C38.0709 26.9599 37.9137 26.7595 37.709 26.6177C37.5043 26.4759 37.2615 26.3991 37.0125 26.3975Z" fill="#A3A3A3"/>
<path d="M37.0125 25.6626H11.955C11.7132 25.6616 11.4766 25.7323 11.275 25.8658C11.0734 25.9993 10.916 26.1896 10.8225 26.4126L5.94002 38.1051C5.86235 38.2918 5.8319 38.4947 5.85135 38.6959C5.8708 38.8972 5.93955 39.0905 6.05153 39.2589C6.1635 39.4272 6.31525 39.5653 6.49333 39.661C6.67141 39.7568 6.87034 39.8071 7.07252 39.8076H41.49C41.6894 39.8089 41.8861 39.7614 42.0629 39.6692C42.2398 39.5771 42.3914 39.4431 42.5045 39.2789C42.6177 39.1147 42.6889 38.9253 42.7121 38.7273C42.7353 38.5292 42.7097 38.3285 42.6375 38.1426L38.1375 26.4201C38.0441 26.198 37.8879 26.0081 37.688 25.8735C37.4882 25.739 37.2534 25.6657 37.0125 25.6626Z" fill="#EDEDED"/>
<path d="M24.0975 30.9426C23.58 30.9426 23.145 31.1976 23.13 31.5201C23.115 31.8426 23.5275 32.1126 24.0675 32.1126C24.6075 32.1126 25.0275 31.8426 25.0275 31.5201C25.0275 31.1976 24.615 30.9426 24.0975 30.9426ZM24.0975 31.8351C23.805 31.8351 23.58 31.6926 23.5875 31.5201C23.595 31.3476 23.8275 31.2051 24.1125 31.2051C24.3975 31.2051 24.615 31.3476 24.615 31.5201C24.615 31.6926 24.36 31.8351 24.075 31.8351H24.0975Z" fill="#E1E1E1"/>
<path d="M24.615 31.5199C24.615 31.7074 24.3675 31.8574 24.0675 31.8574C23.7675 31.8574 23.535 31.7074 23.5425 31.5199C23.55 31.3324 23.7975 31.1899 24.09 31.1899C24.3825 31.1899 24.6225 31.3324 24.615 31.5199Z" fill="#F5F5F5"/>
<path d="M24.2175 39.815H23.55L23.925 28.28H24.4275L24.2175 39.815Z" fill="#A3A3A3"/>
<path d="M24.0975 38.0149L24.105 37.4524L38.61 37.4599L38.7825 38.0299L24.0975 38.0149Z" fill="#A3A3A3"/>
<path d="M40.1625 31.7075L40.005 31.28H8.78999L8.61749 31.7L40.1625 31.7075Z" fill="#A3A3A3"/>
<path d="M11.37 34.2575H10.515L13.5 25.6775H14.1825L11.37 34.2575Z" fill="#A3A3A3"/>
<path d="M18.33 27.7249H11.0175L11.1375 27.4099H18.39L18.33 27.7249Z" fill="#A3A3A3"/>
<path d="M12.75 33.7024H7.77752L7.52252 34.3174H12.5325C13.9575 34.3174 15.105 34.9999 14.8875 35.8924L13.98 39.7999H15L15.825 35.9224C16.095 34.6774 14.6925 33.7099 12.75 33.7024Z" fill="#A3A3A3"/>
<path d="M20.685 33.4998C20.4369 33.4878 20.1923 33.563 19.9937 33.7122C19.7951 33.8615 19.655 34.0756 19.5975 34.3173L19.5 35.1498V35.2323L19.215 37.2498C19.1838 37.3973 19.1025 37.5294 18.985 37.6237C18.8674 37.7181 18.7208 37.7688 18.57 37.7673H14.925L14.8275 38.2248H18.5025C18.7866 38.2316 19.064 38.1373 19.2851 37.9588C19.5062 37.7802 19.6568 37.529 19.71 37.2498L20.0625 34.3398C20.0923 34.209 20.1674 34.0929 20.2744 34.0119C20.3814 33.931 20.5135 33.8904 20.6475 33.8973H27.5925V33.5223L20.685 33.4998Z" fill="#A3A3A3"/>
<path d="M28.74 33.0575C28.7383 33.1183 28.724 33.1781 28.6981 33.2332C28.6722 33.2883 28.6352 33.3374 28.5894 33.3775C28.5437 33.4176 28.4902 33.4479 28.4322 33.4664C28.3742 33.4849 28.313 33.4912 28.2525 33.485H24.945V33.86H28.275C28.8225 33.86 29.235 33.4925 29.19 33.0575L29.0325 31.49H28.605L28.74 33.0575Z" fill="#A3A3A3"/>
<path d="M38.16 35.3075C38.0594 35.0533 37.8847 34.8352 37.6588 34.6815C37.4328 34.5277 37.1658 34.4453 36.8925 34.445H33.6C33.4601 34.4495 33.3227 34.4079 33.2089 34.3266C33.095 34.2452 33.0111 34.1287 32.97 33.995L32.4825 31.4075H32.0475L32.5125 33.995C32.5867 34.2435 32.7409 34.4605 32.9511 34.6124C33.1613 34.7643 33.4158 34.8425 33.675 34.835H36.9975C37.1451 34.8378 37.2887 34.8841 37.4101 34.9682C37.5315 35.0522 37.6254 35.1703 37.68 35.3075L39.0075 39.8075H39.5325L38.16 35.3075Z" fill="#A3A3A3"/>
<path d="M38.5275 36.6948L38.4 36.2673L41.91 36.2748L42.075 36.7023L38.5275 36.6948Z" fill="#A3A3A3"/>
<path d="M28.38 31.4599H28.0725C28.0477 31.2125 28.0801 30.9628 28.1672 30.73C28.2543 30.4972 28.3939 30.2876 28.575 30.1174C28.7609 29.9971 28.9129 29.8313 29.0167 29.6357C29.1204 29.4401 29.1723 29.2212 29.1675 28.9999C29.1225 28.2499 29.085 27.2524 29.085 27.2449H29.3625C29.3625 27.2449 29.4075 28.2499 29.46 28.9999C29.4677 29.2498 29.4102 29.4974 29.2932 29.7183C29.1761 29.9392 29.0036 30.1259 28.7925 30.2599C28.32 30.6274 28.38 31.4524 28.38 31.4599Z" fill="#A3A3A3"/>
<path d="M29.4225 28.6025L29.145 28.52C29.145 28.4675 29.4375 28.025 31.6875 27.92L32.9175 27.875C34.59 27.815 36.315 27.755 36.57 27.425C36.825 27.095 36.72 26.825 36.72 26.825L36.9675 26.7725C36.9675 26.7725 37.1925 27.0875 36.8325 27.5225C36.4725 27.9575 34.8825 27.9875 32.9775 28.055L31.74 28.1C29.6775 28.25 29.4225 28.595 29.4225 28.6025Z" fill="#A3A3A3"/>
<path d="M18.9975 31.4225C18.9975 31.34 18.945 29.5175 19.665 28.8725C19.8339 28.7219 20.0117 28.5817 20.1975 28.4525C20.3269 28.3807 20.4385 28.2807 20.5242 28.16C20.6099 28.0393 20.6674 27.9009 20.6925 27.755C20.7626 27.3706 20.8101 26.9825 20.835 26.5925H21.1125C21.1022 26.9896 21.0646 27.3856 21 27.7775C20.9707 27.9482 20.9036 28.1102 20.8037 28.2516C20.7038 28.3931 20.5736 28.5104 20.4225 28.595C20.2458 28.7154 20.0778 28.8483 19.92 28.9925C19.2825 29.57 19.3425 31.37 19.3425 31.385L18.9975 31.4225Z" fill="#A3A3A3"/>
<path d="M32.0625 9.10253C29.8125 6.29753 24.99 5.01503 21.6975 6.33503C20.5039 6.83241 19.4244 7.56797 18.5247 8.49675C17.6251 9.42552 16.9243 10.528 16.4652 11.7368C16.0061 12.9456 15.7984 14.2353 15.8547 15.5271C15.9109 16.819 16.23 18.0857 16.7925 19.25L23.7675 31.25C23.8939 31.3623 24.0545 31.4286 24.2234 31.4382C24.3922 31.4477 24.5593 31.3999 24.6975 31.3025L32.145 20.8025C32.9165 19.7934 33.4813 18.642 33.8069 17.4141C34.1325 16.1863 34.2126 14.9063 34.0425 13.6475C33.7949 11.9844 33.1118 10.4164 32.0625 9.10253ZM25.005 19.55C24.1672 19.5485 23.3487 19.2988 22.6528 18.8322C21.9569 18.3657 21.415 17.7034 21.0954 16.929C20.7758 16.1545 20.693 15.3027 20.8573 14.4812C21.0217 13.6597 21.4259 12.9054 22.0188 12.3135C22.6117 11.7216 23.3668 11.3188 24.1885 11.1559C25.0103 10.993 25.862 11.0774 26.6358 11.3983C27.4097 11.7193 28.0711 12.2624 28.5364 12.9591C29.0017 13.6558 29.25 14.4747 29.25 15.3125C29.25 15.8696 29.1401 16.4213 28.9267 16.9359C28.7133 17.4505 28.4005 17.918 28.0062 18.3115C27.6119 18.7051 27.1439 19.0171 26.6289 19.2296C26.1139 19.4421 25.5621 19.551 25.005 19.55Z" fill="#007C80"/>
<path d="M31.0725 9.26003C29.7318 7.66812 27.8889 6.58037 25.8473 6.17599C23.8057 5.77162 21.6873 6.07474 19.841 7.03542C17.9948 7.99611 16.5308 9.55704 15.6904 11.461C14.8499 13.365 14.6831 15.4985 15.2175 17.51C15.4887 18.4226 15.9039 19.286 16.4475 20.0675L23.73 31.175C23.7657 31.2276 23.8138 31.2707 23.87 31.3004C23.9262 31.3302 23.9889 31.3457 24.0525 31.3457C24.1161 31.3457 24.1787 31.3302 24.2349 31.3004C24.2911 31.2707 24.3392 31.2276 24.375 31.175L31.725 20C32.2002 19.3078 32.5716 18.5498 32.8275 17.75C33.2583 16.3 33.3235 14.7658 33.0173 13.2844C32.7111 11.803 32.0429 10.4204 31.0725 9.26003ZM24.0525 19.145C23.2144 19.145 22.3951 18.8965 21.6982 18.4309C21.0014 17.9653 20.4583 17.3035 20.1375 16.5292C19.8168 15.7548 19.7329 14.9028 19.8964 14.0808C20.0599 13.2588 20.4635 12.5038 21.0561 11.9112C21.6487 11.3185 22.4038 10.915 23.2258 10.7515C24.0478 10.5879 24.8998 10.6719 25.6741 10.9926C26.4484 11.3133 27.1102 11.8564 27.5758 12.5533C28.0414 13.2502 28.29 14.0694 28.29 14.9075C28.288 16.0308 27.8409 17.1074 27.0466 17.9017C26.2524 18.696 25.1757 19.143 24.0525 19.145Z" fill="#00CCCC"/>
<path d="M33.855 25.1826H36.9C37.2269 25.1895 37.5442 25.2939 37.8115 25.4823C38.0787 25.6707 38.2836 25.9345 38.4 26.2401L42.87 38.0001C42.9371 38.1757 42.9604 38.365 42.9378 38.5516C42.9151 38.7383 42.8473 38.9165 42.7401 39.071C42.633 39.2255 42.4897 39.3514 42.3228 39.438C42.156 39.5245 41.9705 39.569 41.7825 39.5676H7.06497C6.8235 39.5668 6.58602 39.5059 6.37395 39.3905C6.16187 39.275 5.98186 39.1086 5.85016 38.9062C5.71846 38.7038 5.63919 38.4718 5.61952 38.2311C5.59985 37.9905 5.64038 37.7487 5.73747 37.5276L10.635 26.4651C10.8074 26.0755 11.089 25.7443 11.4457 25.5113C11.8024 25.2784 12.219 25.1538 12.645 25.1526H19.6125L24.1125 31.8051L31.4775 20.7801C32.5932 19.1601 33.2372 17.2621 33.3375 15.2976C33.4033 13.9117 33.1263 12.531 32.531 11.2777C31.9358 10.0245 31.0407 8.93732 29.925 8.11259C28.3638 6.83261 26.4418 6.07221 24.4275 5.93759C22.5677 5.83606 20.7252 6.34142 19.1775 7.37759C17.2413 8.68295 15.8635 10.6654 15.315 12.9351C14.565 15.9351 14.895 20.3151 21.8775 22.3476" stroke="#E43D30" stroke-linecap="round" stroke-linejoin="round"/>
</svg>
